<?xml version="1.0" encoding="iso-8859-1"?>
<!-- Generator: Adobe Illustrator 19.0.0, SVG Export Plug-In . SVG Version: 6.00 Build 0)  -->
<svg version="1.1" id="Capa_1" xmlns="http://www.w3.org/2000/svg" xmlns:xlink="http://www.w3.org/1999/xlink" x="0px" y="0px"
	 viewBox="0 0 502.493 502.493" style="enable-background:new 0 0 502.493 502.493;" xml:space="preserve">
<g>
	<g>
		<path d="M497.457,0.573c-1.908-0.764-4.037-0.764-5.946,0l0.016,0.024L5.031,192.941c-4.101,1.644-6.093,6.301-4.448,10.402
			c0.775,1.933,2.273,3.488,4.176,4.334l200.8,89.264l89.264,200.8c1.283,2.887,4.145,4.749,7.304,4.752h0.168
			c3.226-0.065,6.097-2.062,7.28-5.064L501.912,10.973C503.553,6.871,501.559,2.215,497.457,0.573z M301.704,473.861
			l-82.776-186.232c-0.804-1.807-2.249-3.252-4.056-4.056L28.64,200.797l451.6-178.536L301.704,473.861z"/>
	</g>
</g>
<g>
</g>
<g>
</g>
<g>
</g>
<g>
</g>
<g>
</g>
<g>
</g>
<g>
</g>
<g>
</g>
<g>
</g>
<g>
</g>
<g>
</g>
<g>
</g>
<g>
</g>
<g>
</g>
<g>
</g>
</svg>
